<?xml version="1.0" standalone="no"?><!DOCTYPE svg PUBLIC "-//W3C//DTD SVG 1.1//EN" "http://www.w3.org/Graphics/SVG/1.1/DTD/svg11.dtd"><svg t="1557976333403" class="icon" style="" viewBox="0 0 1024 1024" version="1.1" xmlns="http://www.w3.org/2000/svg" p-id="2753" xmlns:xlink="http://www.w3.org/1999/xlink" width="48" height="48"><defs><style type="text/css"></style></defs><path d="M512 21.926c-270.42 0-490.074 219.654-490.074 490.074s219.654 490.074 490.074 490.074 490.074-219.654 490.074-490.074-219.654-490.074-490.074-490.074zM419.257 635.984c-29.287 0-50.764-4.881-79.075-12.692l-81.027 41.004 23.429-68.337c-56.624-40.025-89.814-89.814-89.814-151.318 0-108.364 102.507-191.344 226.489-191.344 110.315 0 207.939 65.406 227.465 158.149-7.809-1.952-15.619-1.952-21.476-1.952-108.364 0-192.32 81.027-192.32 179.628 0 16.595 1.952 32.215 6.833 47.838-6.833-0.975-13.669-0.975-20.502-0.975zM752.158 714.084l15.619 57.598-60.526-34.17c-23.429 4.881-45.882 11.715-68.337 11.715-107.388 0-191.344-73.219-191.344-164.006s84.935-164.006 191.344-164.006c101.53 0 192.32 73.219 192.32 164.006 0 50.764-34.17 96.646-79.075 128.865z" fill="#09BB07" p-id="2754"></path><path d="M576.431 512c-10.737 0-22.452 10.737-22.452 23.429 0 10.737 10.737 20.502 22.452 20.502 16.595 0 28.31-10.737 28.31-20.502 0.975-13.669-11.715-23.429-28.31-23.429zM503.212 403.636c17.571 0 28.31-10.737 28.31-28.31s-10.737-28.31-28.31-28.31c-16.595 0-33.19 10.737-33.19 28.31 0.975 17.571 16.595 28.31 33.19 28.31zM345.061 347.994c-16.595 0-34.17 10.737-34.17 28.31 0 16.595 17.571 28.31 34.17 28.31 15.619 0 28.31-10.737 28.31-28.31 0.975-17.571-12.692-28.31-28.31-28.31zM702.367 512c-11.715 0-22.452 10.737-22.452 23.429 0 10.737 10.737 20.502 22.452 20.502 15.619 0 28.31-10.737 28.31-20.502-0.975-13.669-12.692-23.429-28.31-23.429z" fill="#09BB07" p-id="2755"></path></svg>